<svg
      viewBox="0 0 200 60"
      xmlns="http://www.w3.org/2000/svg"
      className="h-8"
    >
      {/* Red Play Button */}
      <g>
        <path
          d="M95.2,15.3c0,0-0.7-5.3-2.8-7.6c-2.7-2.8-5.7-2.8-7.1-3C77.5,4.2,67.5,4,67.5,4s-10,0.2-17.8,0.7c-1.4,0.2-4.4,0.2-7.1,3
          c-2.1,2.3-2.8,7.6-2.8,7.6S39,20.8,39,26.2v7.5c0,5.4,0.7,10.9,0.7,10.9s0.7,5.3,2.8,7.6c2.7,2.8,6.2,2.7,7.7,3
          c5.6,0.4,17.6,0.7,17.6,0.7s10,0,17.8-0.7c1.4-0.2,4.4-0.2,7.1-3c2.1-2.3,2.8-7.6,2.8-7.6s0.7-5.4,0.7-10.9v-7.5
          C95.9,20.8,95.2,15.3,95.2,15.3z"
          fill="#FF0000"
        />
        <polygon
          fill="#FFFFFF"
          points="63.5,36.3 76.9,26.2 63.5,16.1"
        />
      </g>

      {/* YouTube Wordmark */}
      <text
        x="100"
        y="35"
        fontFamily="'Arial', sans-serif"
        fontSize="30"
        fontWeight="bold"
        fill="#282828"
      >
        YouTube
      </text>
    </svg>